<svg xmlns="http://www.w3.org/2000/svg" viewBox="0 0 280 340" role="img" aria-labelledby="title desc">
  <title id="title">Alliance Jiu Jitsu Kids</title>
  <desc id="desc">Logo Alliance Jiu Jitsu Kids com simbolo triangular, aguia e texto colorido.</desc>
  <rect width="280" height="340" rx="0" fill="#ffffff"/>
  <g transform="translate(58 36)">
    <path d="M82 0 164 142H0Z" fill="none" stroke="#111111" stroke-width="3" stroke-linejoin="round"/>
    <path d="M75 49c18-2 35 7 49 22-15-7-30-7-43-1 19 4 34 17 43 38-24-23-49-29-76-19 6-17 15-30 27-40Z" fill="#111111"/>
    <path d="M70 82c-17 6-31 19-41 41 25-15 48-13 68 4-7-19-16-34-27-45Z" fill="#111111"/>
    <path d="M118 47c21 22 33 51 43 93" fill="none" stroke="#111111" stroke-width="2.5" stroke-linecap="round"/>
  </g>
  <text x="140" y="195" text-anchor="middle" font-family="Arial, Helvetica, sans-serif" font-size="29" font-weight="900" letter-spacing="-1" fill="#111111">ALLIANCE</text>
  <text x="140" y="222" text-anchor="middle" font-family="Arial, Helvetica, sans-serif" font-size="21" font-weight="500" letter-spacing="5" fill="#111111">JIU JITSU</text>
  <g font-family="Arial, Helvetica, sans-serif" font-size="56" font-weight="900">
    <text x="76" y="282" fill="#ffcc00">k</text>
    <text x="108" y="282" fill="#5d9bd3">i</text>
    <text x="126" y="282" fill="#ef4b35">d</text>
    <text x="166" y="282" fill="#8cc63f">s</text>
  </g>
</svg>
